<svg xmlns="http://www.w3.org/2000/svg" viewBox="0 0 512 512" role="img" aria-label="Apple icon">
  <title>Apple Icon</title>
  <rect width="512" height="512" rx="96" fill="#ffffff"/>
  <path
    fill="#111111"
    d="M256 112c-34 0-66 16-86 42-14 19-22 43-22 69 0 45 22 86 62 110-48 18-82 63-82 122 0 82 54 129 128 129 30 0 54-11 76-11s46 11 76 11c74 0 128-47 128-129 0-59-34-104-82-122 40-24 62-65 62-110 0-26-8-50-22-69-20-26-52-42-86-42-28 0-54 11-72 28-18-17-44-28-72-28z"
  />
  <path
    fill="#111111"
    d="M316 72c24-23 60-31 86-23-5 34-28 61-57 73-22 9-46 11-64 7 4-23 14-42 35-57z"
  />
</svg>
